<?xml version="1.0" encoding="utf-8"?>
<!-- Svg Vector Icons : http://www.onlinewebfonts.com/icon -->
<!DOCTYPE svg PUBLIC "-//W3C//DTD SVG 1.1//EN" "http://www.w3.org/Graphics/SVG/1.1/DTD/svg11.dtd">
<svg version="1.1" xmlns="http://www.w3.org/2000/svg" xmlns:xlink="http://www.w3.org/1999/xlink" x="0px" y="0px" viewBox="0 0 1000 1000" enable-background="new 0 0 1000 1000" xml:space="preserve">
<metadata> Svg Vector Icons : http://www.onlinewebfonts.com/icon </metadata>
<g><g transform="translate(0.000000,511.000000) scale(0.100000,-0.100000)"><path d="M4794.2,4994.8c-341.2-32.7-706.9-134.8-974.6-269.7c-302.4-151.2-472-357.6-549.6-666.1c-24.5-91.9-51.1-155.3-81.7-177.8c-65.4-53.1-165.5-218.6-212.5-355.5c-85.8-247.2-108.3-396.4-116.5-796.8l-6.1-392.3l-69.5-71.5c-96-102.2-124.6-224.8-122.6-514.9c0-188,12.3-282,47-406.6c81.7-294.2,230.9-570,451.5-829.5c57.2-69.5,112.4-163.5,141-245.2c161.4-451.5,420.9-819.3,756-1066.5c749.9-559.8,1702-380,2310.8,435.2c126.7,169.6,259.5,427,326.9,629.3c30.6,89.9,79.7,177.8,161.4,275.8c232.9,284,349.4,500.6,435.2,800.9c34.7,128.7,45,214.5,45,427c2,245.2-2.1,273.8-53.1,382.1c-28.6,63.3-77.6,130.8-106.3,149.1l-53.1,34.7v435.2c0,482.2-26.6,688.6-120.6,964.4c-169.6,494.4-545.5,888.8-1040,1089C5627.8,4960.1,5149.7,5031.6,4794.2,4994.8z"/><path d="M2904.2-628c-850-347.3-1352.6-580.3-1587.6-739.6C1138.9-1488.2,904-1717.1,763-1907.1c-132.8-177.8-369.8-645.7-451.5-890.8C197-3141.2,127.6-3484.4,105.1-3827.7C88.7-4076.9,99-4093.3,336-4191.3c692.6-282,1849.1-480.2,3334.5-570.1c543.5-30.6,2120.8-30.6,2656.1,0c1489.5,91.9,2607.1,279.9,3310,561.9c279.9,112.4,282,114.4,249.3,461.8c-45,469.9-173.7,927.6-384.1,1366.9c-273.8,574.1-608.9,915.3-1172.8,1199.3c-394.3,198.2-1593.7,704.9-1667.2,704.9c-14.3,0-57.2-45-98.1-98.1c-38.8-55.2-147.1-171.6-241.1-261.5c-269.7-259.5-521-406.6-864.3-510.8c-239.1-71.5-608.9-79.7-847.9-20.4c-439.3,110.3-872.4,392.3-1144.2,745.8c-61.3,79.7-126.7,145.1-143,143C3306.8-468.7,3118.8-540.2,2904.2-628z M4001.4-1525c723.3-420.9,645.6-384.1,696.7-335.1c83.8,75.6,183.9,114.4,300.4,114.4c116.5,0,216.6-38.8,300.3-114.4c51.1-49-24.5-85.8,694.7,333c306.5,179.8,566,324.9,576.2,324.9s34.7-14.3,51.1-32.7c28.6-28.6,32.7-143,32.7-948c0-819.3-4.1-919.4-32.7-950.1c-18.4-18.4-47-28.6-63.3-20.4c-18.4,6.1-271.7,149.2-565.9,320.8c-292.2,169.6-555.7,322.8-584.4,339.2c-49,28.6-57.2,26.6-151.2-38.8c-89.9-65.4-108.3-69.5-257.5-69.5c-147.1,0-167.5,6.1-253.3,67.4c-53.1,34.7-100.1,65.4-104.2,65.4c-6.1,0-271.7-151.2-590.5-337.1c-318.7-185.9-594.6-341.2-610.9-349.4c-16.3-6.2-45,4.1-63.3,22.5c-28.6,30.6-32.7,130.8-32.7,950.1c0,805,4.1,919.4,32.7,948c16.3,18.4,38.8,32.7,49,32.7C3435.5-1202.2,3695-1347.3,4001.4-1525z"/></g></g>
</svg>